<svg width="235" height="44" viewBox="0 0 235 44" fill="none" xmlns="http://www.w3.org/2000/svg">
<path d="M21.9228 2C10.3517 2 0.9729 11.3787 0.9729 22.9499C0.9729 34.5211 10.3517 43.8999 21.9228 43.8999C26.0397 43.8999 29.8887 42.7062 33.1286 40.6356V43.8999H42.8728V22.9499C42.8728 11.3787 33.494 2 21.9228 2ZM21.9228 34.1557C15.7353 34.1557 10.7171 29.1375 10.7171 22.9499C10.7171 16.7624 15.7353 11.7442 21.9228 11.7442C28.1104 11.7442 33.1286 16.7624 33.1286 22.9499C33.1286 29.1375 28.1104 34.1557 21.9228 34.1557Z" fill="#01D7EF"/>
<path d="M51.6425 26.0459C51.6425 19.1031 57.2941 13.4272 64.4561 13.4759C69.0358 13.5246 73.2745 15.5953 75.4426 20.2237L69.791 23.3175C68.7191 21.2469 66.7947 19.9314 64.4317 19.9314C61.0213 19.9314 58.4634 22.6841 58.4634 26.0459C58.4634 29.4076 61.0213 32.1603 64.4317 32.1603C66.7947 32.1603 68.7191 30.8692 69.791 28.7742L75.4426 31.868C73.2745 36.4965 69.0358 38.5671 64.4561 38.6158C57.2698 38.6645 51.6425 32.9398 51.6425 26.0459Z" fill="#0041A3"/>
<path d="M78.3415 25.9967C78.3415 19.1027 83.9931 13.4268 91.2525 13.4268C98.6337 13.4268 104.212 19.1514 104.212 25.9967C104.212 32.9394 98.5606 38.6154 91.2525 38.6154C83.9444 38.6154 78.3415 32.9394 78.3415 25.9967ZM97.367 26.0454C97.367 22.6593 94.7604 19.8823 91.2525 19.8823C87.7446 19.8823 85.1868 22.6837 85.1868 26.0454C85.1868 29.4072 87.7446 32.2086 91.2525 32.2086C94.7604 32.2086 97.367 29.4072 97.367 26.0454Z" fill="#0041A3"/>
<path d="M107.55 26.094C107.55 18.6641 112.665 13.4753 120.071 13.4753C122.483 13.4753 124.797 14.3523 126.526 15.7409L126.575 3.1709H133.42V26.1184C133.42 33.3534 127.915 38.6883 120.461 38.6883C113.152 38.664 107.55 32.988 107.55 26.094ZM126.599 26.094C126.599 22.7079 123.993 19.9308 120.485 19.9308C116.977 19.9308 114.419 22.7323 114.419 26.094C114.419 29.4801 116.977 32.2085 120.485 32.2085C123.993 32.2085 126.599 29.4558 126.599 26.094Z" fill="#0041A3"/>
<path d="M137.976 25.8502C137.976 18.9562 142.994 13.2803 150.375 13.2803C157.951 13.2803 162.336 18.8832 162.336 25.3874V27.4093H144.602C145.089 30.6005 147.549 32.7199 150.96 32.7199C153.566 32.7199 155.734 31.4775 156.831 29.2607L162.092 31.916C160.022 36.2034 156.075 38.6638 151.009 38.6638C143.554 38.6151 137.976 33.475 137.976 25.8502ZM155.515 23.5847C155.223 21.1243 153.201 19.2486 150.302 19.2486C147.306 19.2486 145.333 21.173 144.845 23.5847H155.515Z" fill="#0041A3"/>
<path d="M166.843 26.2388C166.843 19.5885 172.105 14.083 179.096 14.083C185.99 14.083 191.398 19.3936 191.398 26.2388V38.0049H188.548V32.5482C186.77 36.0561 183.14 38.4678 178.706 38.4678C171.959 38.4678 166.843 32.9867 166.843 26.2388ZM188.402 26.2876C188.402 21.1719 184.309 16.9332 179.096 16.9332C173.932 16.9332 169.839 21.1719 169.839 26.2876C169.839 31.4032 173.932 35.642 179.096 35.642C184.309 35.642 188.402 31.4032 188.402 26.2876Z" fill="#01D7EF"/>
<path d="M199.388 6.75C199.388 5.50762 200.363 4.5332 201.556 4.5332C202.75 4.5332 203.676 5.50762 203.676 6.75C203.676 7.99238 202.75 8.96679 201.556 8.96679C200.363 8.96679 199.388 8.01674 199.388 6.75ZM203.042 14.6184V38.0044H200.046V14.6184H203.042Z" fill="#01D7EF"/>
<path d="M210.034 26.3363C210.034 19.4423 215.247 14.083 222.141 14.083C226.087 14.083 229.571 16.1049 231.544 19.1012L231.593 3.87598H234.589V26.3363C234.589 33.1815 229.181 38.5408 222.287 38.5408C215.296 38.5165 210.034 33.0354 210.034 26.3363ZM231.593 26.3363C231.593 21.2206 227.5 16.9331 222.287 16.9331C217.123 16.9331 213.03 21.2206 213.03 26.3363C213.03 31.4519 217.123 35.6906 222.287 35.6906C227.5 35.6906 231.593 31.4519 231.593 26.3363Z" fill="#01D7EF"/>
<path d="M21.9229 27.8223C24.6136 27.8223 26.7949 25.641 26.7949 22.9502C26.7949 20.2594 24.6136 18.0781 21.9229 18.0781C19.2321 18.0781 17.0508 20.2594 17.0508 22.9502C17.0508 25.641 19.2321 27.8223 21.9229 27.8223Z" fill="#0260EC"/>
<g filter="url(#filter0_f_5610_15762)">
<rect x="20.2176" y="2.73047" width="1.21802" height="8.28253" fill="#020B11" style="mix-blend-mode:multiply"/>
</g>
<path d="M21.9228 34.1557C15.7353 34.1557 10.7171 29.1375 10.7171 22.9499C10.7171 16.7624 15.7353 11.7442 21.9228 11.7442V2C10.3517 2 0.9729 11.3787 0.9729 22.9499C0.9729 34.5211 10.3517 43.8999 21.9228 43.8999V34.1557Z" fill="#025FEB"/>
<defs>
<filter id="filter0_f_5610_15762" x="17.7816" y="0.29443" width="6.0901" height="13.1543" filterUnits="userSpaceOnUse" color-interpolation-filters="sRGB">
<feFlood flood-opacity="0" result="BackgroundImageFix"/>
<feBlend mode="normal" in="SourceGraphic" in2="BackgroundImageFix" result="shape"/>
<feGaussianBlur stdDeviation="1.21802" result="effect1_foregroundBlur_5610_15762"/>
</filter>
</defs>
</svg>
