<svg width="43" height="44" viewBox="0 0 43 44" fill="none" xmlns="http://www.w3.org/2000/svg">
<path d="M22 0C18.0529 0 14.1783 1.06194 10.7829 3.07449C7.38724 5.08704 4.59561 7.97606 2.70074 11.4387C0.805859 14.9012 -0.122445 18.8099 0.0129509 22.7547C0.148347 26.6996 1.34252 30.5353 3.47037 33.8598C5.59822 37.1843 8.58141 39.8751 12.1069 41.6501C15.6325 43.4251 19.5707 44.2189 23.5086 43.9482C27.4465 43.6776 31.2389 42.3525 34.4884 40.1118C37.738 37.8712 40.3248 34.7975 41.978 31.2132L41.8614 31.1594C42.0572 30.7445 42.1666 30.2809 42.1666 29.7917C42.1666 28.0198 40.7303 26.5833 38.9583 26.5833C37.3456 26.5833 36.0109 27.7732 35.784 29.3229C34.6115 31.5296 32.9246 33.4266 30.8603 34.8499C28.5547 36.4395 25.864 37.3797 23.0702 37.5717C20.2765 37.7637 17.4824 37.2006 14.9811 35.9413C12.4797 34.6819 10.3635 32.7729 8.85377 30.4142C7.34405 28.0556 6.49676 25.3342 6.40075 22.5354C6.30474 19.7367 6.96337 16.9636 8.30771 14.507C9.65205 12.0504 11.6326 10.0007 14.0416 8.57285C16.3453 7.20745 18.9599 6.45878 21.6329 6.3959C21.7534 6.40962 21.8758 6.41667 22 6.41667C23.772 6.41667 25.2083 4.98025 25.2083 3.20833C25.2083 1.43642 23.772 0 22 0Z" fill="url(#paint0_angular_3302_10094)"/>
<defs>
<radialGradient id="paint0_angular_3302_10094" cx="0" cy="0" r="1" gradientUnits="userSpaceOnUse" gradientTransform="translate(26.0835 4.5) rotate(62.5713) scale(44.5028 47.3615)">
<stop offset="0.196288" stop-color="#1F9AED" stop-opacity="0.69"/>
<stop offset="0.309051" stop-color="#0077C8"/>
<stop offset="1" stop-color="#1F9AED" stop-opacity="0"/>
</radialGradient>
</defs>
</svg>
